<?xml version="1.0" encoding="utf-8"?>
<!-- Generator: Adobe Illustrator 18.1.1, SVG Export Plug-In . SVG Version: 6.00 Build 0)  -->
<!DOCTYPE svg PUBLIC "-//W3C//DTD SVG 1.1//EN" "http://www.w3.org/Graphics/SVG/1.1/DTD/svg11.dtd">
<svg version="1.1" id="Layer_1" xmlns="http://www.w3.org/2000/svg" xmlns:xlink="http://www.w3.org/1999/xlink" x="0px" y="0px"
	 viewBox="0 0 14.7 14.7" enable-background="new 0 0 14.7 14.7" xml:space="preserve">
<g>
	<g>
		<g>
			<polygon fill="#010101" points="14.7,2.2 12.7,2.2 12.7,0.2 11.7,0.2 11.7,2.2 9.7,2.2 9.7,3.2 11.7,3.2 11.7,5.2 12.7,5.2 
				12.7,3.2 14.7,3.2 			"/>
		</g>
		<g>
			<path fill="#010101" d="M7.6,8.4C7.2,8.1,6.3,7.5,6.3,7.1c0-0.5,0.1-0.7,0.9-1.3C8,5.2,8.5,4.4,8.5,3.5c0-1-0.4-2-1.2-2.5h1.1
				l1-1c0,0-3.2,0-4.3,0C2.8,0,1,1.6,1,3.4c0,1.8,1.2,3.3,3.3,3.3c0.1,0,0.3,0,0.4,0C4.6,6.9,4.5,7.2,4.5,7.5c0,0.5,0.3,0.8,0.6,1.1
				c-0.3,0-0.5,0-0.8,0C1.8,8.7,0,10.4,0,12.1c0,1.6,2.1,2.7,4.7,2.7c2.9,0,4.6-1.6,4.6-3.3C9.3,10.1,9,9.5,7.6,8.4z M2.6,3.4
				C2.4,1.8,3.2,0.7,4.4,0.7c1.2,0,2.2,1.3,2.4,2.8C6.9,5.1,6.3,6.1,5.1,6C3.9,6,2.8,4.9,2.6,3.4z M4.6,14c-1.7,0-3-1.1-3-2.4
				c0-1.3,1.5-2.4,3.2-2.4c0.4,0,0.8,0.1,1.1,0.2c0.9,0.7,1.7,1.1,1.9,1.8c0,0.2,0.1,0.3,0.1,0.5C8,13,7.1,14,4.6,14z"/>
		</g>
	</g>
</g>
</svg>
