<?xml version="1.0" encoding="utf-8"?>
<!-- Generator: Adobe Illustrator 18.1.1, SVG Export Plug-In . SVG Version: 6.00 Build 0)  -->
<!DOCTYPE svg PUBLIC "-//W3C//DTD SVG 1.1//EN" "http://www.w3.org/Graphics/SVG/1.1/DTD/svg11.dtd">
<svg version="1.1" id="Layer_1" xmlns="http://www.w3.org/2000/svg" xmlns:xlink="http://www.w3.org/1999/xlink" x="0px" y="0px"
	 viewBox="0 0 25.3 22.8" enable-background="new 0 0 25.3 22.8" xml:space="preserve">
<g>
	<path fill="#FFFFFF" d="M25.3,11.4c0,6.3-5.1,11.4-11.4,11.4c-3.2,0-6-1.3-8.1-3.4l1.8-1.8c1.6,1.6,3.9,2.6,6.3,2.6
		c4.9,0,8.9-4,8.9-8.9s-4-8.9-8.9-8.9c-4.3,0-7.9,3-8.7,7L8,9.1l-4,5.6L0,9.1l2.7,0.4C3.5,4.1,8.2,0,13.9,0
		C20.2,0,25.3,5.1,25.3,11.4z"/>
	<path fill="#FFFFFF" d="M18.1,7.7c1.5-0.6,2.5,1.6,1,2.3l-4.6,1.8l-0.9,2.6c-0.6,1.6-2.9,0.6-2.3-0.9l1.1-3
		c0.1-0.3,0.3-0.6,0.6-0.7L18.1,7.7z"/>
</g>
</svg>
