<?xml version="1.0" encoding="utf-8"?>
<!-- Generator: Adobe Illustrator 18.1.1, SVG Export Plug-In . SVG Version: 6.00 Build 0)  -->
<!DOCTYPE svg PUBLIC "-//W3C//DTD SVG 1.1//EN" "http://www.w3.org/Graphics/SVG/1.1/DTD/svg11.dtd">
<svg version="1.1" id="Layer_1" xmlns="http://www.w3.org/2000/svg" xmlns:xlink="http://www.w3.org/1999/xlink" x="0px" y="0px"
	 viewBox="0 0 22.3 22.3" enable-background="new 0 0 22.3 22.3" xml:space="preserve">
<path fill="#FFFFFF" d="M17.2,11.1c0,3.3-2.7,6.1-6.1,6.1s-6.1-2.7-6.1-6.1c0-3.3,2.7-6.1,6.1-6.1S17.2,7.8,17.2,11.1z M22.3,13V9.3
	l-2.1-0.4c-0.2-0.9-0.6-1.8-1.1-2.6l1.2-1.8L17.7,2l-1.8,1.2c-0.8-0.5-1.6-0.8-2.6-1.1L13,0H9.3L8.9,2.1C8,2.4,7.1,2.7,6.3,3.2
	L4.6,2L2,4.6l1.2,1.8C2.7,7.1,2.4,8,2.1,8.9L0,9.3V13l2.1,0.4c0.2,0.9,0.6,1.8,1.1,2.6L2,17.7l2.6,2.6l1.8-1.2
	c0.8,0.5,1.6,0.8,2.6,1.1l0.4,2.1H13l0.4-2.1c0.9-0.2,1.8-0.6,2.6-1.1l1.8,1.2l2.6-2.6l-1.2-1.8c0.5-0.8,0.8-1.6,1.1-2.6L22.3,13z"
	/>
</svg>
