<?xml version="1.0" encoding="utf-8"?>
<!-- Generator: Adobe Illustrator 18.1.1, SVG Export Plug-In . SVG Version: 6.00 Build 0)  -->
<!DOCTYPE svg PUBLIC "-//W3C//DTD SVG 1.1//EN" "http://www.w3.org/Graphics/SVG/1.1/DTD/svg11.dtd">
<svg version="1.1" id="Layer_1" xmlns="http://www.w3.org/2000/svg" xmlns:xlink="http://www.w3.org/1999/xlink" x="0px" y="0px"
	 viewBox="0 0 13.2 13.1" enable-background="new 0 0 13.2 13.1" xml:space="preserve">
<path fill="#818181" d="M11.1,1.6c-0.3-0.3-0.7-0.3-1,0c-0.3,0.3-0.3,0.7,0,1c1,1,1.6,2.4,1.6,3.9c0,1.5-0.6,2.9-1.6,3.9
	c-0.3,0.3-0.3,0.7,0,1c0.1,0.1,0.3,0.2,0.5,0.2c0.2,0,0.4-0.1,0.5-0.2c1.3-1.3,2-3,2-4.9C13.1,4.6,12.4,2.9,11.1,1.6z M9.5,3.2
	c-0.3-0.3-0.7-0.3-1,0c-0.3,0.3-0.3,0.7,0,1v0c0.6,0.6,1,1.4,1,2.3c0,0.9-0.4,1.7-1,2.3c-0.3,0.3-0.3,0.7,0,1C8.7,9.9,8.9,10,9,10
	c0.2,0,0.4-0.1,0.5-0.2c0.8-0.8,1.4-2,1.4-3.3C10.9,5.2,10.4,4,9.5,3.2z M0,3.8v5.5h3.1l4.6,3.8L7.8,0L3.1,3.8L0,3.8L0,3.8z"/>
</svg>
